<svg width="17" height="17" viewBox="0 0 17 17" fill="none"  xmlns="http://www.w3.org/2000/svg">
<path d="M3.74995 16.5C3.43328 16.5 3.17495 16.375 2.97495 16.125C2.77495 15.875 2.71662 15.6 2.79995 15.3L3.49995 12.5H1.27495C0.941615 12.5 0.674948 12.371 0.474948 12.113C0.274948 11.8543 0.216615 11.5667 0.299948 11.25C0.349948 11.0167 0.466615 10.8333 0.649948 10.7C0.833282 10.5667 1.04162 10.5 1.27495 10.5H3.99995L4.99995 6.5H2.27495C1.94161 6.5 1.67495 6.371 1.47495 6.113C1.27495 5.85433 1.21662 5.56667 1.29995 5.25C1.34995 5.01667 1.46662 4.83333 1.64995 4.7C1.83328 4.56667 2.04162 4.5 2.27495 4.5H5.49995L6.32495 1.225C6.37495 1.00833 6.48328 0.833333 6.64995 0.7C6.81661 0.566666 7.01662 0.5 7.24995 0.5C7.56662 0.5 7.82495 0.625 8.02495 0.875C8.22495 1.125 8.28328 1.4 8.19995 1.7L7.49995 4.5H11.4999L12.3249 1.225C12.3749 1.00833 12.4833 0.833333 12.6499 0.7C12.8166 0.566666 13.0166 0.5 13.2499 0.5C13.5666 0.5 13.8249 0.625 14.0249 0.875C14.2249 1.125 14.2833 1.4 14.1999 1.7L13.4999 4.5H15.7249C16.0583 4.5 16.3249 4.629 16.5249 4.887C16.7249 5.14567 16.7833 5.43333 16.6999 5.75C16.65 5.98333 16.5333 6.16667 16.3499 6.3C16.1666 6.43333 15.9583 6.5 15.7249 6.5H12.9999L11.9999 10.5H14.7249C15.0583 10.5 15.3249 10.629 15.5249 10.887C15.7249 11.1457 15.7833 11.4333 15.6999 11.75C15.6499 11.9833 15.5333 12.1667 15.3499 12.3C15.1666 12.4333 14.9583 12.5 14.7249 12.5H11.4999L10.6749 15.775C10.6249 15.9917 10.5166 16.1667 10.3499 16.3C10.1833 16.4333 9.98328 16.5 9.74995 16.5C9.43328 16.5 9.17495 16.375 8.97495 16.125C8.77495 15.875 8.71662 15.6 8.79995 15.3L9.49995 12.5H5.49995L4.67495 15.775C4.62495 15.9917 4.51661 16.1667 4.34995 16.3C4.18328 16.4333 3.98328 16.5 3.74995 16.5ZM5.99995 10.5H9.99995L10.9999 6.5H6.99995L5.99995 10.5Z" fill="black"/>
</svg>
